<?xml version="1.0" encoding="UTF-8" standalone="no"?>
<!DOCTYPE svg PUBLIC "-//W3C//DTD SVG 1.1//EN" "http://www.w3.org/Graphics/SVG/1.1/DTD/svg11.dtd">
<svg width="100%" height="100%" viewBox="0 0 466 467" version="1.1" xmlns="http://www.w3.org/2000/svg" xmlns:xlink="http://www.w3.org/1999/xlink" xml:space="preserve" xmlns:serif="http://www.serif.com/" style="fill-rule:evenodd;clip-rule:evenodd;stroke-linejoin:round;stroke-miterlimit:2;">
    <g id="Artboard1" transform="matrix(0.968832,0,0,0.993443,-13.2733,-20.4989)">
        <rect x="13.7" y="20.634" width="480.984" height="469.235" style="fill:none;"/>
        <g transform="matrix(1.03217,0,0,1.0066,-10.1798,-2.59482)">
            <path d="M488.53,130.7L488.53,381.3C488.53,440.482 440.482,488.53 381.3,488.53L130.7,488.53C71.518,488.53 23.47,440.482 23.47,381.3L23.47,130.7C23.47,71.518 71.518,23.47 130.7,23.47L381.3,23.47C440.482,23.47 488.53,71.518 488.53,130.7Z" style="fill:url(#_Linear1);"/>
        </g>
        <g transform="matrix(1.03217,0,0,1.0066,-10.1798,-2.59482)">
            <path d="M331,115.22C367.507,115.367 397.503,145.363 397.65,181.87L397.65,330.13C397.503,366.637 367.507,396.633 331,396.78L181,396.78C144.493,396.633 114.497,366.637 114.35,330.13L114.35,181.87C114.497,145.363 144.493,115.367 181,115.22L331,115.22M331,84.22L181,84.22C127.29,84.22 83.34,128.22 83.34,181.88L83.34,330.13C83.34,383.84 127.34,427.79 181,427.79L331,427.79C384.71,427.79 428.66,383.79 428.66,330.13L428.66,181.87C428.66,128.16 384.71,84.21 331,84.21L331,84.22Z" style="fill:white;fill-rule:nonzero;"/>
        </g>
        <g transform="matrix(1.03217,0,0,1.0066,-10.1798,-2.59482)">
            <path d="M256,198.13C287.747,198.13 313.87,224.253 313.87,256C313.87,287.747 287.747,313.87 256,313.87C224.253,313.87 198.13,287.747 198.13,256C198.168,224.268 224.268,198.168 256,198.13M256,167.13C207.247,167.13 167.13,207.247 167.13,256C167.13,304.753 207.247,344.87 256,344.87C304.753,344.87 344.87,304.753 344.87,256C344.87,207.247 304.753,167.13 256,167.13Z" style="fill:white;fill-rule:nonzero;"/>
        </g>
        <g transform="matrix(1.03217,0,0,1.0066,-10.1798,-2.59482)">
            <circle cx="346.81" cy="163.23" r="21.07" style="fill:white;"/>
        </g>
    </g>
    <defs>
        <linearGradient id="_Linear1" x1="0" y1="0" x2="1" y2="0" gradientUnits="userSpaceOnUse" gradientTransform="matrix(-144.54,-504.1,504.1,-144.54,328.27,508.05)"><stop offset="0" style="stop-color:rgb(255,219,115);stop-opacity:1"/><stop offset="0.08" style="stop-color:rgb(253,173,78);stop-opacity:1"/><stop offset="0.15" style="stop-color:rgb(251,131,46);stop-opacity:1"/><stop offset="0.19" style="stop-color:rgb(250,115,33);stop-opacity:1"/><stop offset="0.23" style="stop-color:rgb(246,105,47);stop-opacity:1"/><stop offset="0.37" style="stop-color:rgb(232,74,90);stop-opacity:1"/><stop offset="0.48" style="stop-color:rgb(224,54,117);stop-opacity:1"/><stop offset="0.55" style="stop-color:rgb(221,47,127);stop-opacity:1"/><stop offset="0.68" style="stop-color:rgb(180,61,151);stop-opacity:1"/><stop offset="0.97" style="stop-color:rgb(77,96,212);stop-opacity:1"/><stop offset="1" style="stop-color:rgb(66,100,219);stop-opacity:1"/></linearGradient>
    </defs>
</svg>
