<?xml version="1.0" encoding="UTF-8" standalone="no"?>
<!DOCTYPE svg PUBLIC "-//W3C//DTD SVG 1.1//EN" "http://www.w3.org/Graphics/SVG/1.1/DTD/svg11.dtd">
<svg width="100%" height="100%" viewBox="0 0 256 256" version="1.1" xmlns="http://www.w3.org/2000/svg" xmlns:xlink="http://www.w3.org/1999/xlink" xml:space="preserve" xmlns:serif="http://www.serif.com/" style="fill-rule:evenodd;clip-rule:evenodd;stroke-linejoin:round;stroke-miterlimit:2;">
    <path d="M218,110C218,107.158 217.484,103.741 218.333,101C221.678,90.207 237.949,98.906 229.833,107.833C228.911,108.848 227.289,109.344 226,109.667C223.439,110.307 220.62,110 218,110Z" style="fill:white;"/>
    <path d="M193,91L193,96C196.729,96 201.411,95.237 205,96.333C216.976,99.993 216,111.756 216,122C217.997,122 220.044,121.844 222,122.333C233.493,125.207 232,136.697 232,146C232,150.956 232.931,156.822 229.667,161C226.071,165.602 220.185,165 215,165C213.388,165 210.737,165.511 209.333,164.5C206.71,162.611 205.552,156.995 205,154C208.287,154 214.218,155.125 216.833,152.667C219.916,149.769 218.654,138.435 215,136.5C213.063,135.475 210.113,136 208,136L193,136L193,165L179,165L179,136L165,136L165,122L179,122L179,110L170,110L170,96L179,96L179,91L193,91ZM193,110L193,122L202,122L202,110L193,110Z" style="fill:white;"/>
    <path d="M118,152L113,165L91,165L96.333,151.5L104,151.667L118,152Z" style="fill:white;"/>
    <path d="M161,96L161,110L153,110L153,152L166,152L166,165L120,165L125.333,152.5L138,152L138,110L130,110L130,96L161,96Z" style="fill:white;"/>
    <path d="M120,91L113,110L125,110L115,134L124,135C123.012,137.682 121.683,142.733 119.667,144.833C118.189,146.372 115.927,146 114,146C109.641,146 100.832,147.805 98.5,143C97.43,140.796 98.966,138.015 99.833,136C101.647,131.788 104.056,127.485 105,123C102.825,123 100.075,123.43 98,122.667C90.221,119.807 98.874,107.302 100.667,103C101.925,99.979 103.423,93.415 106.167,91.5C110.019,88.811 115.883,90.675 120,91Z" style="fill:white;"/>
    <path d="M41,110L36.833,147L30,159L24,143L27,110L41,110Z" style="fill:white;"/>
    <path d="M87,110L90,143L84,158L82,158C76.633,149.502 75.947,140.737 75,131C74.328,124.086 73,116.96 73,110L87,110Z" style="fill:white;"/>
    <path d="M41,154C43.751,154 47.837,154.817 49.5,152C51.269,149.002 50,142.41 50,139L50,106C50,102.907 48.438,93.464 51.167,91.5C53.411,89.884 62.833,90.226 63.833,93C65.471,97.54 64,105.162 64,110L64,142C64,147.484 64.949,153.865 62.667,159C60.49,163.899 50.363,168.272 45.333,164.5C43.12,162.84 41.545,156.59 41,154Z" style="fill:white;"/>
    <g id="Image">
        <path id="path1" d="M29,0.333C13.96,3.467 1.536,15.204 0,31C-1.586,47.314 0,64.598 0,81L0,183C0,201.76 -4.737,227.199 7.333,243C20.372,260.069 44.157,256 63,256L209,256C214.783,256 221.332,256.847 227,255.667C242.04,252.533 254.464,240.796 256,225C257.586,208.686 256,191.402 256,175L256,73C256,54.24 260.737,28.801 248.667,13C235.628,-4.069 211.843,0 193,0L47,0C41.217,0 34.668,-0.847 29,0.333M120,91L113,110L125,110L115,134L124,135C123.012,137.682 121.683,142.733 119.667,144.833C118.189,146.372 115.927,146 114,146C109.641,146 100.832,147.805 98.5,143C97.43,140.796 98.966,138.015 99.833,136C101.647,131.788 104.056,127.485 105,123C102.825,123 100.075,123.43 98,122.667C90.221,119.807 98.874,107.302 100.667,103C101.925,99.979 103.423,93.415 106.167,91.5C110.019,88.811 115.883,90.675 120,91M41,154C43.751,154 47.837,154.817 49.5,152C51.269,149.002 50,142.41 50,139L50,106C50,102.907 48.438,93.464 51.167,91.5C53.411,89.884 62.833,90.226 63.833,93C65.471,97.54 64,105.162 64,110L64,142C64,147.484 64.949,153.865 62.667,159C60.49,163.899 50.363,168.272 45.333,164.5C43.12,162.84 41.545,156.59 41,154M193,91L193,96C196.729,96 201.411,95.237 205,96.333C216.976,99.993 216,111.756 216,122C217.997,122 220.044,121.844 222,122.333C233.493,125.207 232,136.697 232,146C232,150.956 232.931,156.822 229.667,161C226.071,165.602 220.185,165 215,165C213.388,165 210.737,165.511 209.333,164.5C206.71,162.611 205.552,156.995 205,154C208.287,154 214.218,155.125 216.833,152.667C219.916,149.769 218.654,138.435 215,136.5C213.063,135.475 210.113,136 208,136L193,136L193,165L179,165L179,136L165,136L165,122L179,122L179,110L170,110L170,96L179,96L179,91L193,91M161,96L161,110L153,110L153,152L166,152L166,165L120,165L125.333,152.5L138,152L138,110L130,110L130,96L161,96M218,110C218,107.158 217.484,103.741 218.333,101C221.678,90.207 237.949,98.906 229.833,107.833C228.911,108.848 227.289,109.344 226,109.667C223.439,110.307 220.62,110 218,110M41,110L36.833,147L30,159L24,143L27,110L41,110M87,110L90,143L84,158L82,158C76.633,149.502 75.947,140.737 75,131C74.328,124.086 73,116.96 73,110L87,110M193,110L193,122L202,122L202,110L193,110M118,152L113,165L91,165L96.333,151.5L104,151.667L118,152Z" style="fill:rgb(255,40,66);fill-rule:nonzero;"/>
    </g>
</svg>
