<?xml version="1.0" encoding="UTF-8" standalone="no"?>
<!DOCTYPE svg PUBLIC "-//W3C//DTD SVG 1.1//EN" "http://www.w3.org/Graphics/SVG/1.1/DTD/svg11.dtd">
<svg width="100%" height="100%" viewBox="0 0 128 128" version="1.1" xmlns="http://www.w3.org/2000/svg" xmlns:xlink="http://www.w3.org/1999/xlink" xml:space="preserve" xmlns:serif="http://www.serif.com/" style="fill-rule:evenodd;clip-rule:evenodd;stroke-linejoin:round;stroke-miterlimit:2;">
    <path d="M50.784,80.72L50.78,44.501L85.364,62.673L50.784,80.72Z" style="fill:white;"/>
    <g id="_x34__stroke">
        <g id="Youtube_1_">
            <rect x="0" y="0" width="128" height="128" style="fill:none;"/>
            <path d="M128,59.087L128,68.868C128,79.302 126.72,89.732 126.72,89.732C126.72,89.732 125.468,98.614 121.632,102.526C116.764,107.662 111.308,107.686 108.808,107.988C90.896,109.293 64,109.333 64,109.333C64,109.333 30.72,109.027 20.48,108.036C17.632,107.5 11.236,107.661 6.364,102.525C2.528,98.614 1.28,89.731 1.28,89.731C1.28,89.731 0,79.301 0,68.868L0,59.087C0,48.658 1.28,38.224 1.28,38.224C1.28,38.224 2.528,29.342 6.364,25.43C11.236,20.294 16.688,20.27 19.192,19.972C37.104,18.667 63.972,18.667 63.972,18.667L64.028,18.667C64.028,18.667 90.896,18.667 108.808,19.972C111.308,20.27 116.764,20.294 121.632,25.43C125.468,29.341 126.72,38.224 126.72,38.224C126.72,38.224 128,48.658 128,59.087ZM50.784,80.72L85.364,62.673L50.78,44.501L50.784,80.72Z" style="fill:rgb(220,37,36);"/>
        </g>
    </g>
</svg>
